<?xml version="1.0" encoding="UTF-8" standalone="no"?>
<svg
   xmlns:dc="http://purl.org/dc/elements/1.1/"
   xmlns:cc="http://creativecommons.org/ns#"
   xmlns:rdf="http://www.w3.org/1999/02/22-rdf-syntax-ns#"
   xmlns:svg="http://www.w3.org/2000/svg"
   xmlns="http://www.w3.org/2000/svg"
   xmlns:sodipodi="http://sodipodi.sourceforge.net/DTD/sodipodi-0.dtd"
   xmlns:inkscape="http://www.inkscape.org/namespaces/inkscape"
   width="100"
   height="100"
   viewBox="0 0 100 100"
   version="1.1"
   id="svg12"
   sodipodi:docname="y_001_filled_no_background.svg"
   inkscape:version="0.92.3 (2405546, 2018-03-11)">
  <metadata
     id="metadata18">
    <rdf:RDF>
      <cc:Work
         rdf:about="">
        <dc:format>image/svg+xml</dc:format>
        <dc:type
           rdf:resource="http://purl.org/dc/dcmitype/StillImage" />
        <dc:title></dc:title>
      </cc:Work>
    </rdf:RDF>
  </metadata>
  <defs
     id="defs16" />
  <sodipodi:namedview
     pagecolor="#ffffff"
     bordercolor="#666666"
     borderopacity="1"
     objecttolerance="10"
     gridtolerance="10"
     guidetolerance="10"
     inkscape:pageopacity="0"
     inkscape:pageshadow="2"
     inkscape:window-width="1635"
     inkscape:window-height="826"
     id="namedview14"
     showgrid="true"
     inkscape:zoom="2.36"
     inkscape:cx="40.254241"
     inkscape:cy="86.228814"
     inkscape:window-x="285"
     inkscape:window-y="35"
     inkscape:window-maximized="0"
     inkscape:current-layer="g10">
    <inkscape:grid
       type="xygrid"
       id="grid47" />
  </sodipodi:namedview>
  <g
     id="g10">
    <g
       transform="matrix(0.77650322,0,0,0.77650322,12.344885,3.2772557)"
       style="fill:#000000"
       id="g8">
      <svg
         version="1.1"
         x="0px"
         y="0px"
         viewBox="0 0 100 100"
         enable-background="new 0 0 100 100"
         xml:space="preserve"
         id="svg6"
         width="100%"
         height="100%"
         style="fill:#000000"><path
           d="M 97.8,63.2 C 96.1,60.1 92.7,56.6 86,57.4 L 70.6,59.3 V 44.5 42.3 c 0,-3.1 -2.5,-5.6 -5.6,-5.6 h -4.9 c -1.5,0 -2.9,0.5 -3.9,1.4 -0.8,-2.3 -3,-4 -5.6,-4 h -4 C 44,34.1 41.9,35.7 41,38 40,37.2 38.7,36.6 37.3,36.6 H 33 c -3.2,0 -5.9,2.6 -5.9,5.9 V 45 l -6,-15.5 c -1,-3.7 -4.9,-6 -8.7,-4.9 -1.8,0.5 -3.4,1.7 -4.3,3.3 -0.9,1.6 -1.2,3.6 -0.7,5.4 l 7,25.3 c 0.3,2.8 4.2,39.3 27.3,39.2 0,0 0,0 0.1,0 24.7,0 29.5,-13.3 30.4,-16.8 l 22.9,-7.5 c 1.3,-0.3 2.4,-1.2 3,-2.6 1,-2.3 0.9,-5.7 -0.3,-7.7 z M 60.1,39.1 H 65 c 1.7,0 3.1,1.4 3.1,3.1 v 2.2 17.6 0.7 c 0,2.1 -1.7,3.8 -3.8,3.8 h -4 c -2.1,0 -3.8,-1.7 -3.8,-3.8 v -20 c 0,-2 1.6,-3.6 3.6,-3.6 z m -17,1 c 0,-1.9 1.6,-3.5 3.5,-3.5 h 4 c 1.9,0 3.5,1.6 3.5,3.5 v 2.6 20 1.1 c 0,1.5 -1.2,2.7 -2.7,2.7 h -5.1 c -1.7,0 -3.1,-1.4 -3.1,-3.1 V 61.7 42.5 40.1 Z m -13.5,2.4 c 0,-1.8 1.5,-3.4 3.4,-3.4 h 4.2 c 1.8,0 3.4,1.5 3.4,3.4 v 19.2 c 0,1.3 -1,2.3 -2.3,2.3 h -5.7 c -1.6,0 -3,-1.3 -3,-3 z M 95.8,69.9 C 95.5,70.6 95,71 94.5,71.1 l -24.5,8 -0.1,0.8 c 0,0.2 -2.1,15.4 -28,15.5 0,0 0,0 -0.1,0 C 20.6,95.4 17,58.7 17,58.3 L 9.9,32.7 c -0.3,-1.2 -0.2,-2.4 0.5,-3.5 0.6,-1.1 1.6,-1.8 2.8,-2.1 2.5,-0.7 5,0.8 5.6,3.2 l 7.8,20.1 c 0.1,0.3 0.3,0.5 0.6,0.6 v 10 c 0,3 2.4,5.5 5.5,5.5 h 5.7 c 1,0 2,-0.3 2.7,-0.9 0.9,2 2.8,3.4 5.1,3.4 h 5.1 c 1.8,0 3.3,-0.9 4.2,-2.2 1.2,1.3 2.9,2.2 4.8,2.2 h 4 c 3.5,0 6.3,-2.8 6.3,-6.3 v -1 l 15.7,-1.9 c 4.3,-0.5 7.4,1.1 9.4,4.6 0.7,1.4 0.8,3.9 0.1,5.5 z"
           id="path4"
           inkscape:connector-curvature="0"
           style="fill:#000000" /></svg>    </g>
    <path
       style="fill:#ffffff;stroke-width:0.42372882"
       d="M 42.424848,76.890622 C 34.941669,75.631406 28.629069,65.869837 26.268326,51.906779 25.894006,49.692796 24.349571,43.43787 22.836247,38.006944 21.322923,32.576018 20.084749,27.797354 20.084749,27.387691 c 0,-1.027658 1.488905,-2.531705 2.842536,-2.871444 2.413237,-0.605684 3.017879,0.272976 6.753372,9.813939 l 3.480687,8.890153 0.03108,4.237288 c 0.03752,5.115047 0.733108,6.676923 3.289772,7.386888 2.030362,0.563815 5.245542,0.579742 6.683303,0.03311 0.867807,-0.32994 1.154753,-0.28158 1.350119,0.227536 0.745075,1.941633 7.929265,2.716284 9.950152,1.072897 0.936857,-0.761853 1.050208,-0.768575 1.786344,-0.105932 0.609524,0.548673 1.630127,0.707539 4.545452,0.707539 3.447526,0 3.846581,-0.08789 4.809666,-1.059322 0.577622,-0.582628 1.297,-1.81759 1.598614,-2.744361 l 0.54839,-1.685038 6.883928,-0.809498 6.883928,-0.809498 1.975504,1.016631 c 2.565547,1.320275 3.841725,3.569118 3.282614,5.78453 l -0.381906,1.513256 -9.715543,3.235511 c -5.343546,1.779532 -9.852724,3.510143 -10.020394,3.845803 -0.167674,0.33566 -0.650674,1.445998 -1.073343,2.467418 -1.041042,2.515771 -4.063182,5.433601 -7.130161,6.884051 -4.280048,2.024144 -11.802117,3.183593 -16.03402,2.471478 z"
       id="path31"
       inkscape:connector-curvature="0" />
    <path
       style="fill:#ffffff;stroke-width:0.42372882"
       d="m 35.957233,51.727908 c -0.565431,-0.862957 -0.651298,-2.251767 -0.539429,-8.72475 0.129677,-7.503437 0.158383,-7.718916 1.133379,-8.50757 1.531142,-1.238509 4.877065,-1.114339 6.222318,0.230914 1.027695,1.027694 1.040062,1.131315 1.040062,8.714297 0,4.479729 -0.182589,8.015406 -0.438637,8.493837 -0.373343,0.697597 -0.90803,0.819601 -3.591927,0.819601 -2.868899,0 -3.213939,-0.09256 -3.825766,-1.026329 z"
       id="path33"
       inkscape:connector-curvature="0" />
    <path
       style="fill:#ffffff;stroke-width:0.42372882"
       d="m 47.497128,54.57616 c -1.33083,-0.344907 -1.564921,-2.0653 -1.564921,-11.500988 0,-11.168176 -0.03065,-11.083647 4.019184,-11.083647 4.183858,0 4.031663,-0.440461 4.031663,11.6679 0,9.785412 -0.04367,10.359555 -0.819601,10.774819 -0.814871,0.436106 -4.203695,0.520981 -5.666325,0.141916 z"
       id="path35"
       inkscape:connector-curvature="0" />
    <path
       style="fill:#ffffff;stroke-width:0.42372882"
       d="m 57.641893,53.994669 -1.116466,-0.878212 v -8.786564 c 0,-6.757203 0.133647,-8.969336 0.578654,-9.577919 0.825845,-1.12941 5.352495,-1.441329 6.833583,-0.470882 l 1.06234,0.696071 v 9.069647 9.069647 l -1.116466,0.878212 c -0.77211,0.607342 -1.734677,0.878212 -3.120823,0.878212 -1.386145,0 -2.348712,-0.27087 -3.120822,-0.878212 z"
       id="path37"
       inkscape:connector-curvature="0" />
    <path
       style="fill:#ffffff;stroke-width:0.42372882"
       d="M 42.180836,76.884847 C 34.675363,75.369012 28.6459,65.875563 26.199096,51.721441 25.833989,49.609394 24.308899,43.445567 22.810007,38.024047 21.311115,32.602527 20.084749,27.823863 20.084749,27.404793 c 0,-1.042663 1.479939,-2.546556 2.842536,-2.888546 2.395942,-0.601344 3.043208,0.312566 6.65396,9.395091 3.354026,8.436751 3.364626,8.47582 3.618029,13.334424 0.259772,4.980698 0.687483,6.42618 2.129892,7.198134 1.295005,0.693065 5.577885,0.993226 7.317462,0.512835 1.242692,-0.343174 1.656708,-0.314318 1.906991,0.132914 1.091671,1.950707 7.928598,2.701438 9.912154,1.088409 0.936221,-0.761336 1.050624,-0.768201 1.785039,-0.107113 0.549965,0.495053 1.754156,0.749053 4.025424,0.849081 2.842077,0.125168 3.421907,0.01983 4.713687,-0.856361 0.984564,-0.667809 1.691326,-1.627988 2.131513,-2.89578 l 0.658546,-1.896695 6.873844,-0.798188 6.873839,-0.798187 1.972724,1.015197 c 2.572619,1.323916 3.836373,3.563929 3.279826,5.81352 l -0.381906,1.543678 -8.474577,2.796396 c -10.276724,3.391059 -11.652542,3.961294 -11.652542,4.829623 0,2.318529 -3.813623,6.761592 -7.335554,8.546292 -4.221502,2.139194 -12.689782,3.486317 -16.7548,2.66533 z"
       id="path39"
       inkscape:connector-curvature="0" />
  </g>
</svg>
