<?xml version="1.0" encoding="UTF-8" standalone="no"?>
<svg
   xmlns:serif="http://www.serif.com/"
   xmlns:dc="http://purl.org/dc/elements/1.1/"
   xmlns:cc="http://creativecommons.org/ns#"
   xmlns:rdf="http://www.w3.org/1999/02/22-rdf-syntax-ns#"
   xmlns:svg="http://www.w3.org/2000/svg"
   xmlns="http://www.w3.org/2000/svg"
   xmlns:sodipodi="http://sodipodi.sourceforge.net/DTD/sodipodi-0.dtd"
   xmlns:inkscape="http://www.inkscape.org/namespaces/inkscape"
   width="100%"
   height="100%"
   viewBox="0 0 400 400"
   version="1.1"
   xml:space="preserve"
   style="clip-rule:evenodd;fill-rule:evenodd;stroke-linecap:round;stroke-linejoin:round;stroke-miterlimit:1.5"
   id="svg68"
   sodipodi:docname="Ycash_Wallet.svg"
   inkscape:version="0.92.4 (5da689c313, 2019-01-14)"><metadata
   id="metadata74"><rdf:RDF><cc:Work
       rdf:about=""><dc:format>image/svg+xml</dc:format><dc:type
         rdf:resource="http://purl.org/dc/dcmitype/StillImage" /><dc:title></dc:title></cc:Work></rdf:RDF></metadata><defs
   id="defs72" /><sodipodi:namedview
   pagecolor="#ffffff"
   bordercolor="#666666"
   borderopacity="1"
   objecttolerance="10"
   gridtolerance="10"
   guidetolerance="10"
   inkscape:pageopacity="0"
   inkscape:pageshadow="2"
   inkscape:window-width="2560"
   inkscape:window-height="1376"
   id="namedview70"
   showgrid="false"
   inkscape:zoom="2.1510791"
   inkscape:cx="407.70243"
   inkscape:cy="154.06927"
   inkscape:window-x="0"
   inkscape:window-y="27"
   inkscape:window-maximized="1"
   inkscape:current-layer="svg68" />
    <g
   id="Layer1"
   transform="matrix(0.222222,0,0,0.222222,184.5673,176.26901)">
        <g
   transform="matrix(20.4384,-1.67174,1.47184,20.411,-1352.57,-1317.23)"
   id="g12">
            <path
   d="m 101.667,55.665 c 0,-4.644 -3.763,-8.415 -8.397,-8.415 H 34.897 c -4.634,0 -8.397,3.771 -8.397,8.415 v 32.67 c 0,4.644 3.763,8.415 8.397,8.415 H 93.27 c 4.634,0 8.397,-3.771 8.397,-8.415 z"
   style="fill:#1c7296;stroke:#002c78;stroke-width:1.89999998px"
   id="path10"
   inkscape:connector-curvature="0" />
        </g>
        <g
   transform="matrix(9.79537,-0.762793,0.740346,10.7839,-837.866,-519.817)"
   id="g16">
            <rect
   x="30.333"
   y="15.958"
   width="123.333"
   height="10.333"
   style="fill:#9d701f"
   id="rect14" />
        </g>
        <g
   transform="matrix(9.80494,-0.607527,0.554526,10.1515,-787.692,-497.419)"
   id="g20">
            <rect
   x="30.333"
   y="15.958"
   width="123.333"
   height="10.333"
   style="fill:#c3a72e"
   id="rect18" />
        </g>
        <g
   transform="matrix(21.2067,0,0,20.3805,-1290.27,-1333.51)"
   id="g24">
            <path
   d="m 101.667,55.665 c 0,-4.644 -3.624,-8.415 -8.087,-8.415 H 34.587 c -4.463,0 -8.087,3.771 -8.087,8.415 v 32.67 c 0,4.644 3.624,8.415 8.087,8.415 H 93.58 c 4.463,0 8.087,-3.771 8.087,-8.415 z"
   style="fill:#90d2ed;stroke:#002c78;stroke-width:1.92999995px"
   id="path22"
   inkscape:connector-curvature="0" />
        </g>
        <g
   transform="matrix(9.20091,0,0,8.60465,-717.755,-897.5)"
   id="g28">
            <path
   d="m 174.197,108.212 c 0,-3.207 -2.434,-5.81 -5.433,-5.81 h -30.55 c -2.998,0 -5.433,2.603 -5.433,5.81 v 13.64 c 0,3.206 2.435,5.809 5.433,5.809 h 30.55 c 2.999,0 5.433,-2.603 5.433,-5.809 z"
   style="fill:#90d2ed;stroke:#002c78;stroke-width:4.21000004px"
   id="path26"
   inkscape:connector-curvature="0" />
        </g>
        <g
   transform="matrix(10.9534,0,0,11.7498,-938.852,-1246.58)"
   id="g32">
            <circle
   cx="140.291"
   cy="113.78"
   r="5.006"
   style="fill:#9d701f"
   id="circle30" />
        </g>
        <g
   id="noun_Sign-Language-Y_253038--2-"
   serif:id="noun_Sign Language Y_253038 (2)"
   transform="matrix(15.9765,0,0,15.9765,-100.194,104.878)">
            <g
   transform="translate(-50,-50)"
   id="g64">
                <path
   d="m 36.627,35.697 c -2.261,0.051 -4.071,1.826 -4.071,4.071 v 1.725 l -4.14,-10.695 c -0.69,-2.553 -3.381,-4.14 -6.003,-3.381 -1.242,0.345 -2.346,1.173 -2.967,2.277 -0.621,1.104 -0.828,2.484 -0.483,3.726 l 4.83,17.457 C 24,52.809 26.691,77.994 42.63,77.925 h 0.069 c 17.043,0 20.355,-9.177 20.976,-11.592 l 15.801,-5.175 c 0.897,-0.207 1.656,-0.828 2.07,-1.794 0.69,-1.587 0.621,-3.933 -0.207,-5.313 -1.173,-2.139 -3.519,-4.554 -8.142,-4.002 L 62.571,51.36 V 39.63 c 0,-2.109 -1.677,-3.815 -3.864,-3.864 h -3.381 c -1.084,0.018 -2.019,0.361 -2.691,0.966 -0.542,-1.557 -2.014,-2.716 -3.864,-2.76 h -2.76 c -1.849,0.042 -3.255,1.134 -3.864,2.691 -0.667,-0.533 -1.528,-0.938 -2.553,-0.966 z"
   style="fill:#ebebeb"
   id="path34"
   inkscape:connector-curvature="0" />
                <path
   d="M 42.768,76.269 H 42.699 C 28.071,76.269 25.587,50.946 25.587,50.67 L 20.688,33.006 c -0.207,-0.828 -0.138,-1.656 0.345,-2.415 0.414,-0.759 1.104,-1.242 1.932,-1.449 1.725,-0.483 3.45,0.552 3.864,2.208 l 5.382,13.869 c 0.069,0.207 0.207,0.345 0.414,0.414 v 6.9 c 0,2.07 1.656,3.795 3.795,3.795 h 3.933 c 0.69,0 1.38,-0.207 1.863,-0.621 0.621,1.38 1.932,2.346 3.519,2.346 h 3.519 c 1.242,0 2.277,-0.621 2.898,-1.518 0.828,0.897 2.001,1.518 3.312,1.518 h 2.76 c 2.415,0 4.347,-1.932 4.347,-4.347 v -0.69 l 10.833,-1.311 c 2.967,-0.345 5.106,0.759 6.486,3.174 0.483,0.966 0.552,2.691 0.069,3.795 -0.207,0.483 -0.552,0.759 -0.897,0.828 l -16.905,5.52 -0.069,0.552 c 0,0.138 -1.445,10.597 -19.32,10.695 z"
   style="fill:#ebebeb"
   id="path36"
   inkscape:connector-curvature="0" />
                <path
   d="m 58.224,56.328 h -2.76 c -1.449,0 -2.622,-1.173 -2.622,-2.622 v -13.8 c 0,-1.38 1.104,-2.484 2.484,-2.484 h 3.381 c 1.173,0 2.139,0.966 2.139,2.139 v 14.145 c 0,1.422 -1.13,2.578 -2.622,2.622 z"
   style="fill:#ebebeb"
   id="path38"
   inkscape:connector-curvature="0" />
                <path
   d="m 43.665,38.112 h -0.069 c 0,-1.311 1.104,-2.415 2.415,-2.415 h 2.76 c 1.311,0 2.415,1.104 2.415,2.415 v 16.353 c 0,1.009 -0.788,1.822 -1.863,1.863 h -3.519 c -1.173,0 -2.139,-0.966 -2.139,-2.139 z"
   style="fill:#ebebeb"
   id="path40"
   inkscape:connector-curvature="0" />
                <path
   d="m 40.284,54.603 h -3.933 c -1.104,0 -2.07,-0.897 -2.07,-2.07 V 39.768 c 0,-1.242 1.035,-2.346 2.346,-2.346 h 2.898 c 1.242,0 2.346,1.035 2.346,2.346 v 13.248 c 0,0.867 -0.645,1.541 -1.587,1.587 z"
   style="fill:#ebebeb"
   id="path42"
   inkscape:connector-curvature="0" />
                <g
   transform="matrix(0.69,0,0,0.69,13.8565,10.4431)"
   id="g46">
                    <path
   d="M 70.6,59.3 86,57.4 c 6.7,-0.8 10.1,2.7 11.8,5.8 1.2,2 1.3,5.4 0.3,7.7 -0.6,1.4 -1.7,2.3 -3,2.6 L 72.2,81 C 71.3,84.5 66.5,97.8 41.8,97.8 H 41.7 C 18.6,97.9 14.7,61.4 14.4,58.6 l -7,-25.3 c -0.5,-1.8 -0.2,-3.8 0.7,-5.4 0.9,-1.6 2.5,-2.8 4.3,-3.3 3.8,-1.1 7.7,1.2 8.7,4.9 l 6,15.5 v -2.5 c 0,-3.254 2.625,-5.827 5.9,-5.9 h 4.3 c 1.486,0.04 2.733,0.627 3.7,1.4 0.883,-2.257 2.922,-3.84 5.6,-3.9 h 4 c 2.682,0.064 4.815,1.743 5.6,4 0.975,-0.877 2.33,-1.375 3.9,-1.4 H 65 c 3.17,0.071 5.6,2.544 5.6,5.6 z"
   id="path44"
   inkscape:connector-curvature="0" />
                </g>
                <g
   transform="matrix(0.69,0,0,0.69,13.8565,10.4431)"
   id="g50">
                    <path
   d="m 41.9,95.4 c 25.906,-0.143 28,-15.3 28,-15.5 l 0.1,-0.8 24.5,-8 c 0.5,-0.1 1,-0.5 1.3,-1.2 0.7,-1.6 0.6,-4.1 -0.1,-5.5 -2,-3.5 -5.1,-5.1 -9.4,-4.6 l -15.7,1.9 v 1 c 0,3.5 -2.8,6.3 -6.3,6.3 h -4 c -1.9,0 -3.6,-0.9 -4.8,-2.2 -0.9,1.3 -2.4,2.2 -4.2,2.2 h -5.1 c -2.3,0 -4.2,-1.4 -5.1,-3.4 -0.7,0.6 -1.7,0.9 -2.7,0.9 H 32.7 C 29.6,66.5 27.2,64 27.2,61 V 51 C 26.9,50.9 26.7,50.7 26.6,50.4 L 18.8,30.3 c -0.6,-2.4 -3.1,-3.9 -5.6,-3.2 -1.2,0.3 -2.2,1 -2.8,2.1 -0.7,1.1 -0.8,2.3 -0.5,3.5 L 17,58.3 c 0,0.4 3.6,37.1 24.8,37.1 z"
   style="fill:#ffffff"
   id="path48"
   inkscape:connector-curvature="0" />
                </g>
                <g
   transform="matrix(0.69,0,0,0.69,13.8565,10.4431)"
   id="g54">
                    <path
   d="m 64.3,66.5 c 2.163,-0.064 3.8,-1.739 3.8,-3.8 V 42.2 c 0,-1.7 -1.4,-3.1 -3.1,-3.1 h -4.9 c -2,0 -3.6,1.6 -3.6,3.6 v 20 c 0,2.1 1.7,3.8 3.8,3.8 z"
   style="fill:#ffffff"
   id="path52"
   inkscape:connector-curvature="0" />
                </g>
                <g
   transform="matrix(0.69,0,0,0.69,13.8565,10.4431)"
   id="g58">
                    <path
   d="m 51.4,66.5 c 1.559,-0.06 2.7,-1.238 2.7,-2.7 V 40.1 c 0,-1.9 -1.6,-3.5 -3.5,-3.5 h -4 c -1.9,0 -3.5,1.6 -3.5,3.5 h 0.1 v 23.3 c 0,1.7 1.4,3.1 3.1,3.1 z"
   style="fill:#ffffff"
   id="path56"
   inkscape:connector-curvature="0" />
                </g>
                <g
   transform="matrix(0.69,0,0,0.69,13.8565,10.4431)"
   id="g62">
                    <path
   d="m 38.3,64 c 1.366,-0.067 2.3,-1.043 2.3,-2.3 V 42.5 c 0,-1.9 -1.6,-3.4 -3.4,-3.4 H 33 c -1.9,0 -3.4,1.6 -3.4,3.4 V 61 c 0,1.7 1.4,3 3,3 z"
   style="fill:#ffffff"
   id="path60"
   inkscape:connector-curvature="0" />
                </g>
            </g>
        </g>
    </g>
</svg>