<?xml version="1.0" encoding="UTF-8" standalone="no"?>
<!DOCTYPE svg PUBLIC "-//W3C//DTD SVG 1.1//EN" "http://www.w3.org/Graphics/SVG/1.1/DTD/svg11.dtd">
<svg width="100%" height="100%" viewBox="0 0 400 278" version="1.1" xmlns="http://www.w3.org/2000/svg" xmlns:xlink="http://www.w3.org/1999/xlink" xml:space="preserve" xmlns:serif="http://www.serif.com/" style="fill-rule:evenodd;clip-rule:evenodd;stroke-linecap:round;stroke-linejoin:round;stroke-miterlimit:1.5;">
    <g id="Layer1" transform="matrix(0.222222,0,0,0.222222,185.778,124.667)">
        <g transform="matrix(20.4384,-1.67174,1.47184,20.411,-1352.57,-1317.23)">
            <path d="M101.667,55.665C101.667,51.021 97.904,47.25 93.27,47.25L34.897,47.25C30.263,47.25 26.5,51.021 26.5,55.665L26.5,88.335C26.5,92.979 30.263,96.75 34.897,96.75L93.27,96.75C97.904,96.75 101.667,92.979 101.667,88.335L101.667,55.665Z" style="fill:rgb(174,52,7);stroke:rgb(0,44,120);stroke-width:1.9px;"/>
        </g>
        <g transform="matrix(9.79537,-0.762793,0.740346,10.7839,-837.866,-519.817)">
            <rect x="30.333" y="15.958" width="123.333" height="10.333" style="fill:rgb(157,112,31);"/>
        </g>
        <g transform="matrix(9.80494,-0.607527,0.554526,10.1515,-787.692,-497.419)">
            <rect x="30.333" y="15.958" width="123.333" height="10.333" style="fill:rgb(195,167,46);"/>
        </g>
        <g transform="matrix(21.2067,0,0,20.3805,-1290.27,-1333.51)">
            <path d="M101.667,55.665C101.667,51.021 98.043,47.25 93.58,47.25L34.587,47.25C30.124,47.25 26.5,51.021 26.5,55.665L26.5,88.335C26.5,92.979 30.124,96.75 34.587,96.75L93.58,96.75C98.043,96.75 101.667,92.979 101.667,88.335L101.667,55.665Z" style="fill:rgb(245,103,51);stroke:rgb(0,44,120);stroke-width:1.93px;"/>
        </g>
        <g transform="matrix(5.15544,0,0,4.82134,-13.0463,-414.519)">
            <path d="M174.197,108.212C174.197,105.005 171.763,102.402 168.764,102.402L138.214,102.402C135.216,102.402 132.781,105.005 132.781,108.212L132.781,121.852C132.781,125.058 135.216,127.661 138.214,127.661L168.764,127.661C171.763,127.661 174.197,125.058 174.197,121.852L174.197,108.212Z" style="fill:rgb(245,103,51);stroke:rgb(0,44,120);stroke-width:5.86px;"/>
        </g>
        <g transform="matrix(6.13739,0,0,6.58363,-136.931,-610.115)">
            <circle cx="140.291" cy="113.78" r="5.006" style="fill:rgb(157,112,31);"/>
        </g>
        <g transform="matrix(2.08921,0,0,2.0882,-470.838,-452.894)">
            <g transform="matrix(0.465394,0,2.66454e-17,0.456748,61.31,91.1071)">
                <path d="M125.893,67.254C125.893,38.239 102.786,14.683 74.324,14.683C45.862,14.683 22.755,38.239 22.755,67.254L22.755,446.564C22.755,475.579 45.862,499.135 74.324,499.135C102.786,499.135 125.893,475.579 125.893,446.564L125.893,67.254Z" style="fill:white;"/>
            </g>
            <g transform="matrix(0.465394,1.03177e-05,-8.06779e-06,0.363909,381.51,138.367)">
                <path d="M125.893,80.666C125.893,44.249 102.786,14.683 74.324,14.683C45.862,14.683 22.755,44.249 22.755,80.666L22.755,433.152C22.755,469.569 45.862,499.135 74.324,499.135C102.786,499.135 125.893,469.569 125.893,433.152L125.893,80.666Z" style="fill:white;"/>
            </g>
            <g transform="matrix(1.83083,0,0,1.83083,-204.135,-559.322)">
                <path d="M150.825,466.966C150.825,522.471 195.82,567.466 251.325,567.466C306.83,567.466 351.826,522.471 351.826,466.966L325.696,466.966C325.696,508.039 292.399,541.336 251.325,541.336C210.252,541.336 176.955,508.039 176.955,466.966L150.825,466.966Z" style="fill:white;"/>
            </g>
            <g transform="matrix(0.465394,0,0,0.33027,148.41,187.151)">
                <path d="M125.893,87.386C125.893,47.26 102.786,14.683 74.324,14.683C45.862,14.683 22.755,47.26 22.755,87.386L22.755,426.432C22.755,466.558 45.862,499.135 74.324,499.135C102.786,499.135 125.893,466.558 125.893,426.432L125.893,87.386Z" style="fill:white;"/>
            </g>
            <g transform="matrix(0.465394,0,0,0.33027,221.41,187.151)">
                <path d="M125.893,87.386C125.893,47.26 102.786,14.683 74.324,14.683C45.862,14.683 22.755,47.26 22.755,87.386L22.755,426.432C22.755,466.558 45.862,499.135 74.324,499.135C102.786,499.135 125.893,466.558 125.893,426.432L125.893,87.386Z" style="fill:white;"/>
            </g>
            <g transform="matrix(0.465394,0,0,0.33027,294.41,187.151)">
                <path d="M125.893,87.386C125.893,47.26 102.786,14.683 74.324,14.683C45.862,14.683 22.755,47.26 22.755,87.386L22.755,426.432C22.755,466.558 45.862,499.135 74.324,499.135C102.786,499.135 125.893,466.558 125.893,426.432L125.893,87.386Z" style="fill:white;"/>
            </g>
        </g>
    </g>
</svg>
