<?xml version="1.0" encoding="UTF-8" standalone="no"?>
<svg
   xmlns:dc="http://purl.org/dc/elements/1.1/"
   xmlns:cc="http://creativecommons.org/ns#"
   xmlns:rdf="http://www.w3.org/1999/02/22-rdf-syntax-ns#"
   xmlns:svg="http://www.w3.org/2000/svg"
   xmlns="http://www.w3.org/2000/svg"
   xmlns:sodipodi="http://sodipodi.sourceforge.net/DTD/sodipodi-0.dtd"
   xmlns:inkscape="http://www.inkscape.org/namespaces/inkscape"
   width="100"
   height="100"
   viewBox="0 0 100 100"
   version="1.1"
   id="svg12"
   sodipodi:docname="y_001_filled.svg"
   inkscape:version="0.92.3 (2405546, 2018-03-11)">
  <metadata
     id="metadata18">
    <rdf:RDF>
      <cc:Work
         rdf:about="">
        <dc:format>image/svg+xml</dc:format>
        <dc:type
           rdf:resource="http://purl.org/dc/dcmitype/StillImage" />
        <dc:title></dc:title>
      </cc:Work>
    </rdf:RDF>
  </metadata>
  <defs
     id="defs16" />
  <sodipodi:namedview
     pagecolor="#ffffff"
     bordercolor="#666666"
     borderopacity="1"
     objecttolerance="10"
     gridtolerance="10"
     guidetolerance="10"
     inkscape:pageopacity="0"
     inkscape:pageshadow="2"
     inkscape:window-width="1635"
     inkscape:window-height="826"
     id="namedview14"
     showgrid="true"
     inkscape:zoom="2.36"
     inkscape:cx="113.77119"
     inkscape:cy="86.228814"
     inkscape:window-x="260"
     inkscape:window-y="56"
     inkscape:window-maximized="0"
     inkscape:current-layer="g10">
    <inkscape:grid
       type="xygrid"
       id="grid47" />
  </sodipodi:namedview>
  <g
     id="g10">
    <circle
       cx="50%"
       cy="50%"
       id="circle2"
       r="48%"
       stroke="none"
       fill="#90d2ed" />
    <g
       transform="matrix(0.77650322,0,0,0.77650322,12.344885,3.2772557)"
       style="fill:#000000"
       id="g8">
      <svg
         version="1.1"
         x="0px"
         y="0px"
         viewBox="0 0 100 100"
         enable-background="new 0 0 100 100"
         xml:space="preserve"
         id="svg6"
         width="100%"
         height="100%"
         style="fill:#000000"><path
           d="M 97.8,63.2 C 96.1,60.1 92.7,56.6 86,57.4 L 70.6,59.3 V 44.5 42.3 c 0,-3.1 -2.5,-5.6 -5.6,-5.6 h -4.9 c -1.5,0 -2.9,0.5 -3.9,1.4 -0.8,-2.3 -3,-4 -5.6,-4 h -4 C 44,34.1 41.9,35.7 41,38 40,37.2 38.7,36.6 37.3,36.6 H 33 c -3.2,0 -5.9,2.6 -5.9,5.9 V 45 l -6,-15.5 c -1,-3.7 -4.9,-6 -8.7,-4.9 -1.8,0.5 -3.4,1.7 -4.3,3.3 -0.9,1.6 -1.2,3.6 -0.7,5.4 l 7,25.3 c 0.3,2.8 4.2,39.3 27.3,39.2 0,0 0,0 0.1,0 24.7,0 29.5,-13.3 30.4,-16.8 l 22.9,-7.5 c 1.3,-0.3 2.4,-1.2 3,-2.6 1,-2.3 0.9,-5.7 -0.3,-7.7 z M 60.1,39.1 H 65 c 1.7,0 3.1,1.4 3.1,3.1 v 2.2 17.6 0.7 c 0,2.1 -1.7,3.8 -3.8,3.8 h -4 c -2.1,0 -3.8,-1.7 -3.8,-3.8 v -20 c 0,-2 1.6,-3.6 3.6,-3.6 z m -17,1 c 0,-1.9 1.6,-3.5 3.5,-3.5 h 4 c 1.9,0 3.5,1.6 3.5,3.5 v 2.6 20 1.1 c 0,1.5 -1.2,2.7 -2.7,2.7 h -5.1 c -1.7,0 -3.1,-1.4 -3.1,-3.1 V 61.7 42.5 40.1 Z m -13.5,2.4 c 0,-1.8 1.5,-3.4 3.4,-3.4 h 4.2 c 1.8,0 3.4,1.5 3.4,3.4 v 19.2 c 0,1.3 -1,2.3 -2.3,2.3 h -5.7 c -1.6,0 -3,-1.3 -3,-3 z M 95.8,69.9 C 95.5,70.6 95,71 94.5,71.1 l -24.5,8 -0.1,0.8 c 0,0.2 -2.1,15.4 -28,15.5 0,0 0,0 -0.1,0 C 20.6,95.4 17,58.7 17,58.3 L 9.9,32.7 c -0.3,-1.2 -0.2,-2.4 0.5,-3.5 0.6,-1.1 1.6,-1.8 2.8,-2.1 2.5,-0.7 5,0.8 5.6,3.2 l 7.8,20.1 c 0.1,0.3 0.3,0.5 0.6,0.6 v 10 c 0,3 2.4,5.5 5.5,5.5 h 5.7 c 1,0 2,-0.3 2.7,-0.9 0.9,2 2.8,3.4 5.1,3.4 h 5.1 c 1.8,0 3.3,-0.9 4.2,-2.2 1.2,1.3 2.9,2.2 4.8,2.2 h 4 c 3.5,0 6.3,-2.8 6.3,-6.3 v -1 l 15.7,-1.9 c 4.3,-0.5 7.4,1.1 9.4,4.6 0.7,1.4 0.8,3.9 0.1,5.5 z"
           id="path4"
           inkscape:connector-curvature="0"
           style="fill:#000000" /></svg>    </g>
    <path
       style="fill:#ffffff;stroke-width:0.42372882"
       d="M 42.443733,76.887576 C 39.548312,76.30989 37.608965,75.194496 35.122302,72.676733 31.073337,68.577131 27.92483,61.248949 26.279735,52.095573 25.816717,49.519325 24.281098,43.267296 22.867248,38.202177 21.453397,33.137058 20.29661,28.34666 20.29661,27.55685 c 0,-1.638364 1.563347,-3.192443 3.211481,-3.192443 1.904728,0 2.975964,1.690835 5.906013,9.322034 1.565925,4.07839 3.110603,7.968914 3.432618,8.645609 0.379608,0.797723 0.585481,2.751832 0.585481,5.557263 0,4.989591 0.578605,6.209906 3.303172,6.96661 1.728778,0.480139 4.817369,0.514603 6.400766,0.07142 0.777551,-0.21763 1.294465,-0.0078 2.191982,0.889695 1.09605,1.09605 1.410893,1.174484 4.714492,1.174484 2.500609,0 3.813345,-0.191453 4.47095,-0.652058 0.837952,-0.586924 1.056897,-0.586924 2.191884,0 1.657227,0.856986 6.44667,0.862483 8.096555,0.0093 1.328509,-0.686999 2.528504,-2.58019 2.528504,-3.989136 0,-1.031071 0.106217,-1.058157 7.766022,-1.980411 6.861695,-0.826161 8.368326,-0.571646 10.415021,1.75941 1.034525,1.17826 1.310483,1.880056 1.310483,3.332713 0,1.127939 -0.248792,2.046631 -0.642805,2.373633 -0.353547,0.293415 -4.859348,1.899556 -10.012898,3.569202 l -9.370094,3.035719 -0.85586,2.29433 c -1.654309,4.434755 -6.602411,8.138111 -12.672664,9.484729 -3.572059,0.792424 -8.615303,1.099301 -10.82398,0.658627 z"
       id="path68"
       inkscape:connector-curvature="0" />
    <path
       style="fill:#ffffff;stroke-width:0.42372882"
       d="m 57.402413,53.881612 -1.088854,-1.088854 v -8.513097 c 0,-8.473625 0.0048,-8.517919 1.040062,-9.553159 0.867387,-0.867387 1.451907,-1.040061 3.520708,-1.040061 4.231995,0 4.125671,-0.266272 4.125671,10.332065 0,10.670375 0.07191,10.475959 -3.983059,10.769269 -2.273856,0.164476 -2.634236,0.07413 -3.614528,-0.906163 z"
       id="path70"
       inkscape:connector-curvature="0" />
    <path
       style="fill:#ffffff;stroke-width:0.42372882"
       d="m 47.085808,54.213261 c -0.92829,-0.650199 -0.94174,-0.803588 -0.94174,-10.739412 0,-11.821478 -0.122304,-11.482324 4.140693,-11.482324 3.949121,0 3.910154,-0.116823 3.910154,11.722798 0,9.687325 -0.01455,9.849507 -0.94174,10.498938 -0.550829,0.385816 -1.830848,0.65962 -3.083683,0.65962 -1.252836,0 -2.532855,-0.273804 -3.083684,-0.65962 z"
       id="path72"
       inkscape:connector-curvature="0" />
    <path
       style="fill:#ffffff;stroke-width:0.42372882"
       d="m 36.216707,52.088378 c -0.558424,-0.558424 -0.66586,-1.959975 -0.66586,-8.686441 0,-9.527466 0.07791,-9.715496 4.025424,-9.715496 3.957074,0 4.025424,0.167637 4.025424,9.872881 0,5.795669 -0.148122,8.326088 -0.508475,8.686441 -0.782364,0.782364 -6.057497,0.66163 -6.876513,-0.157385 z"
       id="path74"
       inkscape:connector-curvature="0" />
  </g>
</svg>
